<svg width="32" height="32" viewBox="0 0 32 32" fill="none" xmlns="http://www.w3.org/2000/svg">
    <rect x="15" y="2" rx="1" ry="1" width="2" height="3"
    style="fill:white;stroke:white;stroke-width:2;" />
    <rect x="15" y="27" rx="1" ry="1" width="2" height="3"
    style="fill:white;stroke:white;stroke-width:2;" />
    <rect x="2" y="15" rx="1" ry="1" width="3" height="2"
    style="fill:white;stroke:white;stroke-width:2;" />
    <rect x="27" y="15" rx="1" ry="1" width="3" height="2"
    style="fill:white;stroke:white;stroke-width:2;" />
    <rect x="0" y="0" rx="1" ry="1" width="3" height="2"
    style="fill:white;stroke:white;stroke-width:2;" transform="translate(7,5) rotate(45)"/>
    <rect x="0" y="0" rx="1" ry="1" width="2" height="3"
    style="fill:white;stroke:white;stroke-width:2;" transform="translate(25,5) rotate(45)"/>
    <rect x="0" y="0" rx="1" ry="1" width="2" height="3"
    style="fill:white;stroke:white;stroke-width:2;" transform="translate(7,23) rotate(45)"/>
    <rect x="0" y="0" rx="1" ry="1" width="3" height="2"
    style="fill:white;stroke:white;stroke-width:2;" transform="translate(25,23) rotate(45)"/>
    <circle cx="16" cy="16" r="10" stroke="white" stroke-width="4"/>
</svg>
